<?xml version="1.0" encoding="iso-8859-1"?>
<!-- Uploaded to: SVGRepo, www.svgrepo.com, Transformed by: SVGRepo Tools -->
<svg height="800px" width="800px" version="1.1" id="Layer_1" xmlns="http://www.w3.org/2000/svg" xmlns:xlink="http://www.w3.org/1999/xlink" 
	 viewBox="0 0 512.001 512.001" xml:space="preserve">
<path style="fill:#FF6465;" d="M385.262,39.092c6.456-0.951,13.277-1.462,20.333-1.462c7.053,0,13.873,0.51,20.328,1.461
	c17.02,2.509,29.581,17.198,29.581,34.402v133.488h-99.822V73.494C355.681,56.29,368.243,41.6,385.262,39.092z"/>
<path style="opacity:0.1;enable-background:new    ;" d="M418.14,39.092c1.28-0.188,2.585-0.346,3.894-0.5
	c-5.288-0.62-10.783-0.962-16.439-0.962c-7.054,0-13.876,0.51-20.333,1.461c-17.02,2.51-29.58,17.198-29.58,34.402V206.98h32.878
	V73.494C388.559,56.29,401.12,41.6,418.14,39.092z"/>
<path style="fill:#FF8080;" d="M299.883,319.54l17.695-98.535c2.036-11.337,9.359-21.06,19.765-26.001
	c16.946-8.045,41.251-13.087,68.251-13.087c27.212,0,51.686,5.12,68.648,13.276c10.347,4.974,17.614,14.683,19.625,25.986
	l17.503,98.411c3.584,20.148-8.394,39.881-27.978,45.819c-21.319,6.464-48.366,10.329-77.797,10.329
	c-29.407,0-56.434-3.859-77.744-10.313C308.239,359.486,296.262,339.707,299.883,319.54z"/>
<path style="opacity:0.1;enable-background:new    ;" d="M349.768,365.425c-19.61-5.939-31.589-25.718-27.967-45.886l17.695-98.536
	c2.036-11.337,9.359-21.06,19.765-26.001c14.618-6.94,34.72-11.636,57.297-12.798c-3.598-0.185-7.252-0.289-10.964-0.289
	c-27,0-51.305,5.041-68.251,13.086c-10.406,4.94-17.729,14.663-19.765,26.001l-17.695,98.536
	c-3.622,20.167,8.356,39.947,27.967,45.886c21.31,6.454,48.338,10.313,77.744,10.313c3.693,0,7.348-0.061,10.959-0.181
	C391.408,374.728,368.403,371.069,349.768,365.425z"/>
<path style="fill:#FF6465;" d="M344.981,305.435l10.95-60.979c1.521-8.468,7.919-15.28,16.313-17.17
	c9.93-2.236,21.5-3.475,33.35-3.475c11.964,0,23.62,1.258,33.594,3.526c8.388,1.907,14.772,8.727,16.279,17.195l10.835,60.923
	c2.105,11.836-5.889,23.071-17.751,25.03c-13.298,2.195-27.958,3.359-42.958,3.359c-14.963,0-29.591-1.158-42.865-3.344
	C350.853,328.545,342.853,317.282,344.981,305.435z"/>
<path style="fill:#BA82AA;" d="M126.739,39.092c-6.456-0.951-13.277-1.462-20.333-1.462c-7.053,0-13.873,0.51-20.328,1.461
	c-17.02,2.509-29.581,17.198-29.581,34.402v133.488h99.822V73.494C156.32,56.29,143.758,41.6,126.739,39.092z"/>
<path style="opacity:0.1;enable-background:new    ;" d="M118.957,39.091c1.279-0.188,2.583-0.345,3.889-0.499
	c-5.288-0.62-10.783-0.962-16.439-0.962c-7.053,0-13.873,0.51-20.328,1.461c-17.02,2.509-29.581,17.198-29.581,34.402v133.488
	h32.877V73.494C89.376,56.289,101.937,41.599,118.957,39.091z"/>
<path style="fill:#D192BF;" d="M212.118,319.54l-17.695-98.535c-2.036-11.337-9.359-21.06-19.765-26.001
	c-16.946-8.045-41.251-13.087-68.251-13.087c-27.212,0-51.686,5.12-68.648,13.276c-10.347,4.974-17.614,14.683-19.623,25.986
	L0.632,319.59c-3.584,20.148,8.394,39.881,27.978,45.819c21.319,6.464,48.366,10.329,77.797,10.329
	c29.407,0,56.434-3.859,77.744-10.313C203.762,359.486,215.739,339.707,212.118,319.54z"/>
<path style="opacity:0.1;enable-background:new    ;" d="M50.528,365.41c-19.584-5.937-31.561-25.671-27.978-45.819l17.503-98.41
	c2.01-11.303,9.278-21.012,19.623-25.986c14.649-7.043,34.906-11.815,57.685-12.988c-3.595-0.185-7.246-0.289-10.955-0.289
	c-27.212,0-51.686,5.12-68.648,13.276c-10.347,4.975-17.614,14.683-19.623,25.986L0.632,319.59
	c-3.584,20.148,8.394,39.883,27.978,45.819c21.319,6.464,48.366,10.329,77.797,10.329c3.693,0,7.348-0.061,10.959-0.181
	C92.197,374.727,69.171,371.061,50.528,365.41z"/>
<path style="fill:#BA82AA;" d="M167.02,305.435l-10.95-60.979c-1.521-8.468-7.919-15.28-16.313-17.17
	c-9.93-2.236-21.5-3.475-33.35-3.475c-11.964,0-23.62,1.258-33.594,3.526c-8.388,1.907-14.772,8.727-16.279,17.195l-10.835,60.923
	c-2.105,11.836,5.889,23.071,17.751,25.03c13.298,2.195,27.958,3.359,42.958,3.359c14.963,0,29.591-1.158,42.865-3.344
	C161.149,328.545,169.147,317.282,167.02,305.435z"/>
<path style="fill:#CC8495;" d="M277.275,122.118c-6.755-0.996-13.893-1.529-21.275-1.529c-7.38,0-14.517,0.534-21.271,1.529
	c-17.809,2.625-30.952,17.995-30.952,35.996V297.79h104.449V158.115C308.227,140.114,295.084,124.744,277.275,122.118z"/>
<path style="opacity:0.1;enable-background:new    ;" d="M267.608,122.118c1.589-0.233,3.202-0.437,4.832-0.619
	c-5.297-0.592-10.795-0.909-16.439-0.909c-7.38,0-14.517,0.533-21.271,1.529c-17.809,2.625-30.952,17.995-30.952,35.996v139.676
	h32.877V158.115C236.656,140.113,249.799,124.743,267.608,122.118z"/>
<path style="fill:#FFA6BB;" d="M366.612,415.566l-18.515-103.103c-2.13-11.862-9.793-22.037-20.681-27.206
	c-17.732-8.419-43.164-13.693-71.415-13.693c-28.473,0-54.081,5.358-71.83,13.892c-10.827,5.206-18.43,15.364-20.534,27.191
	l-18.314,102.972c-3.749,21.082,8.783,41.73,29.275,47.943c22.307,6.763,50.608,10.808,81.404,10.808
	c30.77,0,59.05-4.037,81.349-10.79C357.869,457.366,370.402,436.669,366.612,415.566z"/>
<path style="opacity:0.1;enable-background:new    ;" d="M196.516,463.563c-20.491-6.213-33.024-26.861-29.275-47.943
	l18.314-102.972c2.103-11.827,9.708-21.986,20.534-27.192c15.437-7.423,36.823-12.438,60.865-13.619
	c-3.597-0.176-7.248-0.273-10.953-0.273c-28.473,0-54.081,5.358-71.83,13.892c-10.827,5.206-18.43,15.365-20.534,27.192
	L145.323,415.62c-3.749,21.082,8.783,41.73,29.275,47.943c22.307,6.763,50.608,10.808,81.404,10.808
	c3.692,0,7.346-0.061,10.961-0.175C240.428,473.358,216.148,469.515,196.516,463.563z"/>
<path style="fill:#CC8495;" d="M319.424,400.809l-11.458-63.805c-1.591-8.86-8.286-15.988-17.069-17.965
	c-10.39-2.339-22.496-3.636-34.896-3.636c-12.519,0-24.715,1.316-35.152,3.689c-8.776,1.996-15.457,9.131-17.033,17.993
	l-11.338,63.747c-2.203,12.385,6.162,24.141,18.574,26.19c13.914,2.297,29.253,3.515,44.949,3.515
	c15.656,0,30.962-1.212,44.851-3.498C313.28,424.99,321.65,413.206,319.424,400.809z"/>
<g>
</g>
<g>
</g>
<g>
</g>
<g>
</g>
<g>
</g>
<g>
</g>
<g>
</g>
<g>
</g>
<g>
</g>
<g>
</g>
<g>
</g>
<g>
</g>
<g>
</g>
<g>
</g>
<g>
</g>
</svg>
