<svg width="103" height="44" viewBox="0 0 103 44" fill="none" xmlns="http://www.w3.org/2000/svg">
<path d="M48.568 21.8792V34.4858H44.8193V3.35317H54.7613C55.9481 3.32672 57.128 3.55127 58.2329 4.01386C59.3379 4.47645 60.346 5.16792 61.1992 6.04837C62.061 6.87536 62.7468 7.88958 63.2107 9.02285C63.6745 10.1561 63.9056 11.3822 63.8884 12.6187C63.9131 13.8618 63.6856 15.0959 63.2214 16.2364C62.7572 17.3769 62.0674 18.3968 61.1992 19.2263C59.4607 20.9949 57.3148 21.8784 54.7613 21.8768H48.568V21.8792ZM48.568 7.18606V18.0538H54.8545C55.5437 18.0756 56.2295 17.9437 56.8682 17.6665C57.5069 17.3893 58.0843 16.973 58.5635 16.4441C59.0403 15.9497 59.4192 15.3582 59.678 14.7048C59.9367 14.0513 60.0701 13.3492 60.0701 12.6398C60.0701 11.9304 59.9367 11.2283 59.678 10.5748C59.4192 9.9214 59.0403 9.32996 58.5635 8.83548C58.0903 8.29546 57.5149 7.86892 56.8755 7.58413C56.236 7.29934 55.5471 7.16281 54.8545 7.18358H48.568V7.18606Z" fill="#5F6368"/>
<path d="M72.5253 12.4893C75.2961 12.4893 77.4832 13.2792 79.0866 14.859C80.6901 16.4389 81.491 18.605 81.4895 21.3573V34.4856H77.9038V31.5295H77.7408C76.1886 33.9639 74.1241 35.1811 71.5474 35.1811C69.3479 35.1811 67.5078 34.4856 66.0269 33.0945C65.3163 32.456 64.7481 31.6564 64.3639 30.754C63.9796 29.8516 63.7889 28.869 63.8057 27.878C63.8057 25.6738 64.5865 23.9209 66.148 22.6192C67.7096 21.3176 69.7942 20.6651 72.4019 20.6618C74.6278 20.6618 76.461 21.0965 77.9015 21.9659V21.0518C77.9057 20.3762 77.769 19.708 77.5012 19.0958C77.2334 18.4835 76.8412 17.9425 76.3531 17.512C75.3618 16.5578 74.0699 16.0372 72.7349 16.0539C70.6409 16.0539 68.9839 16.9962 67.7639 18.8807L64.4623 16.6625C66.2784 13.8803 68.9661 12.4893 72.5253 12.4893ZM67.6754 27.9649C67.6729 28.4739 67.7844 28.9762 68.0007 29.4299C68.217 29.8836 68.5317 30.2755 68.9187 30.5732C69.7478 31.269 70.7769 31.6375 71.8315 31.6165C73.4134 31.6137 74.9297 30.9419 76.0481 29.7485C77.2899 28.5015 77.9108 27.0384 77.9108 25.3591C76.742 24.3655 75.1121 23.8687 73.0213 23.8687C71.4985 23.8687 70.2288 24.2604 69.2121 25.0437C68.1853 25.8386 67.6754 26.8049 67.6754 27.9649Z" fill="#5F6368"/>
<path d="M102.072 13.1855L89.555 43.876H85.6853L90.3303 33.1375L82.0996 13.1855H86.1742L92.1231 28.4873H92.2046L97.9905 13.1855H102.072Z" fill="#5F6368"/>
<path d="M33.4184 19.1611C33.4199 17.9423 33.3233 16.7256 33.1297 15.5244H17.3203V22.4127H26.3752C26.1899 23.5129 25.7978 24.5616 25.2223 25.4957C24.6469 26.4298 23.9001 27.2299 23.0271 27.8478V32.3191H28.4311C31.5953 29.2066 33.4184 24.6036 33.4184 19.1611Z" fill="#4285F4"/>
<path d="M17.321 36.6394C21.8449 36.6394 25.6541 35.0546 28.4318 32.3221L23.0277 27.8508C21.5236 28.9388 19.5865 29.5599 17.321 29.5599C12.9484 29.5599 9.23699 26.415 7.90983 22.1772H2.34277V26.7852C3.73807 29.7473 5.87761 32.2375 8.52252 33.9776C11.1674 35.7177 14.2136 36.6393 17.321 36.6394Z" fill="#34A853"/>
<path d="M7.90975 22.1776C7.20813 19.957 7.20813 17.5522 7.90975 15.3316V10.7236H2.34269C1.16892 13.2155 0.557617 15.9657 0.557617 18.7546C0.557617 21.5434 1.16892 24.2936 2.34269 26.7855L7.90975 22.1776Z" fill="#FBBC04"/>
<path d="M17.321 7.94841C19.7117 7.90674 22.0218 8.87043 23.7519 10.6312L28.5366 5.52645C25.5026 2.48616 21.4832 0.816984 17.321 0.868849C14.2136 0.869 11.1674 1.79057 8.52252 3.53067C5.87761 5.27077 3.73807 7.76091 2.34277 10.7231L7.90983 15.331C9.23699 11.0932 12.9484 7.94841 17.321 7.94841Z" fill="#EA4335"/>
</svg>
