<svg width="125" height="27" viewBox="0 0 125 27" fill="none" xmlns="http://www.w3.org/2000/svg">
<path d="M13.2692 0.541504L16.0396 9.41421L25.0048 9.41421L17.7518 14.8978L20.5222 23.7705L13.2692 18.2869L6.01622 23.7705L8.78661 14.8978L1.53363 9.41421L10.4988 9.41421L13.2692 0.541504Z" fill="#D3A6BA"/>
<path d="M37.9479 0.541504L40.7183 9.41421L49.6835 9.41421L42.4305 14.8978L45.2009 23.7705L37.9479 18.2869L30.6949 23.7705L33.4653 14.8978L26.2123 9.41421L35.1775 9.41421L37.9479 0.541504Z" fill="#D3A6BA"/>
<path d="M62.6276 0.541504L65.398 9.41421L74.3632 9.41421L67.1102 14.8978L69.8806 23.7705L62.6276 18.2869L55.3746 23.7705L58.145 14.8978L50.892 9.41421L59.8572 9.41421L62.6276 0.541504Z" fill="#D3A6BA"/>
<path d="M87.3063 0.541504L90.0767 9.41421L99.0419 9.41421L91.7889 14.8978L94.5593 23.7705L87.3063 18.2869L80.0533 23.7705L82.8237 14.8978L75.5707 9.41421L84.5359 9.41421L87.3063 0.541504Z" fill="#D3A6BA"/>
<path d="M111.986 2.21909L114.279 9.56323L114.389 9.91421H114.756L122.231 9.91421L116.167 14.499L115.886 14.7111L115.991 15.0469L118.297 22.4316L112.288 17.8881L111.986 17.6601L111.684 17.8881L105.675 22.4316L107.981 15.0469L108.086 14.7111L107.805 14.499L101.741 9.91421L109.216 9.91421H109.583L109.693 9.56323L111.986 2.21909Z" stroke="#D3A6BA"/>
</svg>
