<svg width="91" height="57" viewBox="0 0 91 57" fill="none" xmlns="http://www.w3.org/2000/svg">
<path d="M90.0885 28.9226C90.0885 44.275 78.0767 56.9013 63.1654 56.9013C48.3921 56.9013 36.2422 44.275 36.2422 28.9226C36.2422 13.5701 48.2541 0.943848 63.0273 0.943848C78.0767 0.943848 90.0885 13.5701 90.0885 28.9226Z" fill="#F9B50B"/>
<path d="M54.055 29.0661C54.055 27.0573 53.7788 25.0486 53.5027 23.1834H36.9346C37.0726 22.179 37.3488 21.3181 37.6249 20.1703H52.3981C52.122 19.1659 51.7078 18.1615 51.2936 17.1572H38.7295C39.1437 16.1528 39.6959 15.2919 40.2482 14.1441H49.7749C49.2226 13.1397 48.5322 12.1353 47.7038 11.131H42.4573C43.2857 10.1266 44.1141 9.26573 45.2186 8.26136C40.5243 3.66998 34.1732 0.943848 27.1318 0.943848C12.4966 1.37429 0.34668 13.5701 0.34668 28.9226C0.34668 44.275 12.3586 56.9013 27.2698 56.9013C34.3113 56.9013 40.5243 54.0317 45.3567 49.5838C46.3232 48.7229 47.1516 47.7186 48.118 46.5707H42.5953C41.905 45.7098 41.2147 44.7055 40.6624 43.7011H50.051C50.6033 42.8402 51.1555 41.8358 51.5697 40.688H39.0056C38.5914 39.8271 38.1772 38.8228 37.9011 37.6749H52.6743C53.5027 35.0923 54.055 32.2226 54.055 29.0661Z" fill="#C8191C"/>
<path d="M36.7973 36.0963L37.2115 33.5136C37.0734 33.5136 36.7973 33.6571 36.5212 33.6571C35.5547 33.6571 35.4166 33.0832 35.5547 32.7962L36.3831 27.6309H37.9018L38.316 24.7613H36.9354L37.2115 23.0396H34.3121C34.3121 23.0396 32.6553 32.7962 32.6553 33.9441C32.6553 35.6659 33.6217 36.5267 35.0024 36.5267C35.8308 36.5267 36.5212 36.2398 36.7973 36.0963Z" fill="white"/>
<path d="M37.7637 31.3613C37.7637 35.5223 40.525 36.5266 42.7341 36.5266C44.8051 36.5266 45.7716 36.0962 45.7716 36.0962L46.3239 33.2266C46.3239 33.2266 44.8051 33.944 43.2864 33.944C40.1108 33.944 40.6631 31.5048 40.6631 31.5048H46.4619C46.4619 31.5048 46.8761 29.6395 46.8761 28.7787C46.8761 26.9134 45.9097 24.4742 42.7341 24.4742C39.9728 24.3308 37.7637 27.6308 37.7637 31.3613ZM42.7341 27.0569C44.2528 27.0569 43.9767 28.9221 43.9767 29.0656H40.8012C40.9392 28.9221 41.2154 27.0569 42.7341 27.0569Z" fill="white"/>
<path d="M60.82 36.0956L61.3723 32.7955C61.3723 32.7955 59.9916 33.5129 58.8871 33.5129C56.9542 33.5129 55.9877 31.9346 55.9877 30.0694C55.9877 26.4823 57.6445 24.6171 59.7155 24.6171C61.0962 24.6171 62.3388 25.478 62.3388 25.478L62.753 22.3214C62.753 22.3214 61.0962 21.604 59.4394 21.604C56.1258 21.604 52.9502 24.6171 52.9502 30.2128C52.9502 33.9433 54.607 36.3825 58.0587 36.3825C59.3013 36.526 60.82 36.0956 60.82 36.0956Z" fill="white"/>
<path d="M21.1942 24.3311C19.2613 24.3311 17.7425 24.905 17.7425 24.905L17.3283 27.4876C17.3283 27.4876 18.5709 26.9137 20.5039 26.9137C21.4703 26.9137 22.2987 27.0572 22.2987 27.9181C22.2987 28.492 22.1607 28.6355 22.1607 28.6355H20.9181C18.4329 28.6355 15.8096 29.6398 15.8096 33.0834C15.8096 35.8095 17.4664 36.3834 18.5709 36.3834C20.5039 36.3834 21.4703 35.0921 21.6084 35.0921L21.4703 36.24H23.8175L24.922 28.0616C24.922 24.4745 22.1607 24.3311 21.1942 24.3311ZM21.7465 30.9312C21.7465 31.3616 21.4703 33.8008 19.8135 33.8008C18.9851 33.8008 18.709 33.0834 18.709 32.6529C18.709 31.9355 19.1232 30.9312 21.3323 30.9312C21.6084 30.9312 21.7465 30.9312 21.7465 30.9312Z" fill="white"/>
<path d="M27.6841 36.3829C28.3744 36.3829 31.9642 36.5264 31.9642 32.5089C31.9642 28.7784 28.5125 29.4958 28.5125 28.061C28.5125 27.3436 29.0648 27.0566 30.0313 27.0566C30.4455 27.0566 31.9642 27.2001 31.9642 27.2001L32.3784 24.474C32.3784 24.474 31.4119 24.187 29.6171 24.187C27.546 24.187 25.337 25.0479 25.337 28.061C25.337 31.5045 28.9267 31.2176 28.9267 32.5089C28.9267 33.3698 27.9602 33.5133 27.2699 33.5133C26.0273 33.5133 24.6466 33.0828 24.6466 33.0828L24.2324 35.8089C24.5086 36.0959 25.337 36.3829 27.6841 36.3829Z" fill="white"/>
<path d="M84.5679 22.0342L84.0156 26.0516C84.0156 26.0516 82.9111 24.6168 81.2542 24.6168C78.631 24.6168 76.4219 27.9169 76.4219 31.7909C76.4219 34.23 77.5264 36.6692 80.0116 36.6692C81.6684 36.6692 82.773 35.5214 82.773 35.5214L82.6349 36.5257H85.5343L87.6054 22.3211L84.5679 22.0342ZM83.1872 29.7821C83.1872 31.3604 82.4968 33.5126 80.84 33.5126C79.8736 33.5126 79.3213 32.6518 79.3213 31.0735C79.3213 28.6343 80.2878 27.1995 81.6684 27.1995C82.6349 27.343 83.1872 28.0604 83.1872 29.7821Z" fill="white"/>
<path d="M5.59436 36.2388L7.25117 25.6212L7.5273 36.2388H9.46025L13.1881 25.6212L11.6693 36.2388H14.7068L17.054 22.0342H12.3597L9.46025 30.7865L9.32218 22.0342H5.18016L2.83301 36.2388H5.59436Z" fill="white"/>
<path d="M49.7742 36.2396C50.6026 31.3613 50.7407 27.3438 52.8117 28.0612C53.0878 26.196 53.502 25.3351 53.7781 24.6177H53.2259C51.9833 24.6177 50.8787 26.3394 50.8787 26.3394L51.1549 24.7612H48.3935L46.5986 36.2396H49.7742Z" fill="white"/>
<path d="M67.4481 24.3311C65.5152 24.3311 63.9964 24.905 63.9964 24.905L63.5822 27.4876C63.5822 27.4876 64.8248 26.9137 66.7578 26.9137C67.7242 26.9137 68.5527 27.0572 68.5527 27.9181C68.5527 28.492 68.4146 28.6355 68.4146 28.6355H67.172C64.6868 28.6355 62.0635 29.6398 62.0635 33.0834C62.0635 35.8095 63.7203 36.3834 64.8248 36.3834C66.7578 36.3834 67.7242 35.0921 67.8623 35.0921L67.7242 36.24H70.3475L71.4521 28.0616C71.4521 24.4745 68.4146 24.3311 67.4481 24.3311ZM68.1384 30.9312C68.1384 31.3616 67.8623 33.8008 66.2055 33.8008C65.3771 33.8008 65.101 33.0834 65.101 32.6529C65.101 31.9355 65.5152 30.9312 67.7242 30.9312C68.0004 30.9312 68.0004 30.9312 68.1384 30.9312Z" fill="white"/>
<path d="M73.6609 36.2396C74.4893 31.3613 74.6274 27.3438 76.6984 28.0612C76.9745 26.196 77.3887 25.3351 77.6649 24.6177H77.1126C75.87 24.6177 74.7654 26.3394 74.7654 26.3394L75.0416 24.7612H72.2802L70.4854 36.2396H73.6609Z" fill="white"/>
</svg>
