<svg width="58" height="58" viewBox="0 0 58 57" fill="none" xmlns="http://www.w3.org/2000/svg">
<ellipse cx="28.8892" cy="28.7308" rx="28.2076" ry="27.9788" fill="#4E6297"/>
<path d="M41.5829 20.0833C41.5829 17.9885 39.7194 16.1401 37.6075 16.1401H21.5818C19.4699 16.1401 17.6064 17.9885 17.6064 20.0833V35.979C17.6064 38.0738 19.4699 39.9222 21.5818 39.9222H29.6568V30.9269H26.6753V26.9838H29.6568V25.3819C29.6568 22.6709 31.6445 20.3297 34.1291 20.3297H37.3591V24.2728H34.1291C33.7564 24.2728 33.3837 24.6425 33.3837 25.3819V26.9838H37.3591V30.9269H33.3837V39.9222H37.6075C39.7194 39.9222 41.5829 38.0738 41.5829 35.979V20.0833Z" fill="white"/>
</svg>
