<svg width="58" height="58" viewBox="0 0 58 57" fill="none" xmlns="http://www.w3.org/2000/svg">
<ellipse cx="28.897" cy="28.9227" rx="28.2076" ry="27.9788" fill="url(#paint0_linear_433_74)"/>
<path d="M38.1787 17.731H21.0263C19.0897 17.731 17.6143 19.1945 17.6143 21.1153V38.1286C17.6143 40.0495 19.0897 41.513 21.0263 41.513H38.1787C40.1152 41.513 41.5907 40.0495 41.5907 38.1286V21.1153C41.5907 19.1945 40.1152 17.731 38.1787 17.731ZM29.6025 36.7566C33.5678 36.7566 36.7954 33.6466 36.7954 29.8964C36.7954 29.2561 36.7032 28.5243 36.5187 27.9755H38.5475V37.6713C38.5475 38.1286 38.1787 38.586 37.6254 38.586H21.5796C21.1185 38.586 20.6574 38.2201 20.6574 37.6713V27.884H22.7784C22.594 28.5243 22.5018 29.1646 22.5018 29.8049C22.4095 33.6466 25.6371 36.7566 29.6025 36.7566ZM29.6025 34.0125C27.0204 34.0125 24.9916 32.0002 24.9916 29.5305C24.9916 27.0608 27.0204 25.0485 29.6025 25.0485C32.1845 25.0485 34.2133 27.0608 34.2133 29.5305C34.2133 32.0916 32.1845 34.0125 29.6025 34.0125ZM38.4553 24.2253C38.4553 24.7741 37.9942 25.2314 37.4409 25.2314H34.8588C34.3055 25.2314 33.8445 24.7741 33.8445 24.2253V21.7556C33.8445 21.2068 34.3055 20.7494 34.8588 20.7494H37.4409C37.9942 20.7494 38.4553 21.2068 38.4553 21.7556V24.2253Z" fill="white"/>
<defs>
<linearGradient id="paint0_linear_433_74" x1="12.6777" y1="50.6063" x2="49.7372" y2="11.8339" gradientUnits="userSpaceOnUse">
<stop stop-color="#EEA054"/>
<stop offset="0.502762" stop-color="#D64763"/>
<stop offset="1" stop-color="#B62A99"/>
</linearGradient>
</defs>
</svg>
