<svg width="582" height="166" viewBox="0 0 582 166" fill="none" xmlns="http://www.w3.org/2000/svg">
<ellipse cx="30.8056" cy="29.5675" rx="30.5107" ry="28.8156" fill="#2F89CE"/>
<path d="M14.5594 30.1062L21.574 32.5765L24.3085 40.8856C24.4273 41.447 25.1407 41.5593 25.6163 41.2224L29.5396 38.1907C29.8963 37.8539 30.4908 37.8539 30.9663 38.1907L37.9809 43.019C38.4564 43.3558 39.1698 43.1313 39.2887 42.5698L44.5198 18.99C44.6387 18.4286 44.0443 17.8671 43.4498 18.0917L14.5594 28.6465C13.8461 28.8711 13.8461 29.8816 14.5594 30.1062ZM23.9518 31.3413L37.7431 23.3691C37.9808 23.2568 38.2186 23.5937 37.9809 23.706L26.6863 33.6993C26.3296 34.0362 25.9729 34.4853 25.9729 35.0467L25.6163 37.7416C25.6163 38.0784 25.0218 38.1907 24.9029 37.7416L23.4762 32.801C23.1195 32.2396 23.3573 31.5659 23.9518 31.3413Z" fill="white"/>
</svg>
